# File created by Blade
# Date/Time:  Tue Apr 07 20:53:11 2015
# Frame Rate: 120.000 fps
#------------------------------------------------------
:FULLY-SPECIFIED
:DEGREES
1048
root 17.016071 32.645364 2.678889 17.237579 -64.338955 -365.244249
Spine -8.153518 3.964982 2.968121
Head 18.966562 -3.551322 -4.970387
LeftShoulder -23.978195 42.845983 15.569086
LeftArm 57.370362 -50.096412 -88.407951
LeftForeArm 0.424472 -0.000000 6.064965
LeftHand 6.371318 -0.000000 12.931139
LeftHandThumb1 -26.253704 0.000000 33.147579
RightShoulder -3.624010 5.979102 -27.928596
RightArm 20.542579 10.892921 57.839939
RightForeArm -9.119523 0.000000 9.826394
RightHand 7.184559 -0.000000 -3.479203
RightHandThumb1 -24.326973 -0.000000 -32.862282
LeftUpLeg -33.856978 -11.082203 4.854909
LeftLeg 44.574572 -0.000000 -0.000000
LeftFoot -11.684911 4.702166 -20.711310
LeftToeBase -24.507228 -0.000000 0.000000
RightUpLeg -17.877571 -3.440681 7.702776
RightLeg 16.772785 -0.000000 -0.000000
RightFoot -9.464896 -14.975905 4.978984
RightToeBase -12.043402 -0.000000 0.000000
1049
root 16.765774 32.674891 2.708102 16.906937 -64.070660 -364.989483
Spine -8.061561 4.554278 2.824636
Head 18.811879 -3.692766 -5.040853
LeftShoulder -24.213323 43.022980 15.329874
LeftArm 57.650533 -50.264058 -88.503587
LeftForeArm 0.211986 -0.000000 5.624823
LeftHand 6.319426 -0.000000 13.073252
LeftHandThumb1 -26.253704 0.000000 33.147579
RightShoulder -3.557705 5.937177 -27.926829
RightArm 20.639767 10.711853 57.950587
RightForeArm -9.134588 -0.000000 9.684315
RightHand 6.933679 -0.000000 -3.540306
RightHandThumb1 -24.326973 -0.000000 -32.862282
LeftUpLeg -34.282231 -11.334602 4.600164
LeftLeg 41.940522 -0.000000 -0.000000
LeftFoot -10.914979 5.430455 -20.774178
LeftToeBase -23.737506 -0.000000 0.000000
RightUpLeg -17.006417 -3.754604 7.799631
RightLeg 16.042558 -0.000000 -0.000000
RightFoot -9.339343 -15.051756 4.879548
RightToeBase -12.212668 -0.000000 0.000000
1050
root 16.516008 32.700902 2.738422 16.578588 -63.852107 -364.728500
Spine -7.988948 5.190529 2.648137
Head 18.685526 -3.831248 -5.063919
LeftShoulder -24.377211 43.115590 15.209216
LeftArm 57.809083 -50.429071 -88.613010
LeftForeArm -0.001703 -0.000000 5.305285
LeftHand 6.360235 -0.000000 12.970586
LeftHandThumb1 -26.253704 0.000000 33.147579
RightShoulder -3.513614 5.867717 -27.935735
RightArm 20.747482 10.608151 58.112694
RightForeArm -9.172605 -0.000000 9.469571
RightHand 7.309329 -0.000000 -3.624533
RightHandThumb1 -24.326973 -0.000000 -32.862282
LeftUpLeg -34.559905 -11.500293 4.288498
LeftLeg 39.115770 -0.000000 -0.000000
LeftFoot -10.057124 6.258541 -21.476722
LeftToeBase -23.317159 -0.000000 0.000000
RightUpLeg -16.172640 -4.045473 7.865477
RightLeg 15.385424 -0.000000 -0.000000
RightFoot -9.391888 -15.203121 5.022124
RightToeBase -11.919023 -0.000000 0.000000
1051
root 16.266165 32.720723 2.770111 16.314713 -63.699819 -364.537597
Spine -7.914544 5.883185 2.494571
Head 18.550270 -3.957532 -5.136519
LeftShoulder -24.519992 43.168082 15.087495
LeftArm 57.561324 -50.477516 -88.254468
LeftForeArm -0.307106 0.000000 5.041982
LeftHand 6.320263 -0.000000 12.901504
LeftHandThumb1 -26.253704 0.000000 33.147579
RightShoulder -3.450778 5.809443 -27.940913
RightArm 20.860166 10.475637 58.222304
RightForeArm -9.050477 -0.000000 9.289757
RightHand 7.148390 -0.000000 -3.681725
RightHandThumb1 -24.326973 -0.000000 -32.862282
LeftUpLeg -34.748107 -11.594169 3.981011
LeftLeg 36.294004 -0.000000 -0.000000
LeftFoot -9.211978 7.070061 -22.140280
LeftToeBase -22.465773 -0.000000 0.000000
RightUpLeg -15.370238 -4.241716 7.946883
RightLeg 14.806228 -0.000000 -0.000000
RightFoot -9.278287 -15.189858 5.127374
RightToeBase -12.411433 -0.000000 0.000000
1052
root 16.010059 32.733733 2.800417 16.161311 -63.560557 -364.511640
Spine -7.817116 6.582573 2.409668
Head 18.433858 -4.042836 -5.190236
LeftShoulder -24.679108 43.249332 14.954855
LeftArm 57.576912 -50.654716 -88.290843
LeftForeArm -0.360721 -0.000000 4.902750
LeftHand 6.229656 -0.000000 12.962191
LeftHandThumb1 -26.253704 0.000000 33.147579
RightShoulder -3.401505 5.711454 -27.957761
RightArm 21.018255 10.355886 58.357290
RightForeArm -8.785806 -0.000000 9.097794
RightHand 7.224799 -0.000000 -3.715249
RightHandThumb1 -24.326973 -0.000000 -32.862282
LeftUpLeg -34.830487 -11.558327 3.680049
LeftLeg 33.539001 -0.000000 -0.000000
LeftFoot -8.307706 7.997155 -22.643387
LeftToeBase -21.175896 -0.000000 0.000000
RightUpLeg -14.532868 -4.441912 8.103422
RightLeg 14.232048 -0.000000 -0.000000
RightFoot -9.130592 -15.233420 4.918062
RightToeBase -12.710186 -0.000000 0.000000
1053
root 15.750226 32.741363 2.831562 16.064519 -63.412312 -364.554067
Spine -7.733744 7.281768 2.337620
Head 18.351695 -4.160726 -5.183351
LeftShoulder -24.489585 43.080157 15.226319
LeftArm 56.739962 -50.833661 -87.798327
LeftForeArm -0.486607 -0.000000 4.885569
LeftHand 6.216961 -0.000000 12.850148
LeftHandThumb1 -26.253704 0.000000 33.147579
RightShoulder -3.358131 5.620317 -27.939816
RightArm 21.163061 10.226718 58.442192
RightForeArm -8.473556 -0.000000 8.901456
RightHand 7.207384 0.000000 -3.788083
RightHandThumb1 -24.326973 -0.000000 -32.862282
LeftUpLeg -34.861011 -11.436976 3.359510
LeftLeg 30.872035 -0.000000 -0.000000
LeftFoot -7.142547 8.846336 -23.520618
LeftToeBase -20.448882 -0.000000 0.000000
RightUpLeg -13.716480 -4.639072 8.291151
RightLeg 13.726653 -0.000000 -0.000000
RightFoot -9.133437 -15.249288 5.016673
RightToeBase -12.521699 -0.000000 0.000000
1054
root 15.488798 32.742906 2.862965 16.017693 -63.288169 -364.642014
Spine -7.678473 7.972313 2.301288
Head 18.274738 -4.220605 -5.248134
LeftShoulder -24.595076 43.131997 15.150782
LeftArm 56.458842 -50.940938 -87.509748
LeftForeArm -0.572791 -0.000000 4.702377
LeftHand 6.287950 -0.000000 12.786322
LeftHandThumb1 -26.253704 0.000000 33.147579
RightShoulder -3.260511 5.586901 -27.997371
RightArm 21.209176 10.119539 58.599560
RightForeArm -8.476011 -0.000000 8.750483
RightHand 7.343023 -0.000000 -3.875985
RightHandThumb1 -24.326973 -0.000000 -32.862282
LeftUpLeg -34.838257 -11.220814 2.993011
LeftLeg 28.314221 -0.000000 -0.000000
LeftFoot -5.841639 9.850196 -24.120370
LeftToeBase -20.030751 -0.000000 0.000000
RightUpLeg -12.949126 -4.765893 8.484193
RightLeg 13.332930 -0.000000 -0.000000
RightFoot -9.176302 -15.303113 5.155560
RightToeBase -12.074777 -0.000000 0.000000
1055
root 15.224180 32.737991 2.895895 15.993311 -63.175499 -364.766829
Spine -7.634497 8.610088 2.284443
Head 18.215852 -4.175341 -5.323448
LeftShoulder -24.783890 43.243072 14.994968
LeftArm 56.332937 -51.133957 -87.398965
LeftForeArm -0.444015 -0.000000 4.549146
LeftHand 6.548092 -0.000000 12.563672
LeftHandThumb1 -26.253704 0.000000 33.147579
RightShoulder -3.103556 5.509995 -28.069464
RightArm 21.247405 10.125869 58.793428
RightForeArm -8.490556 -0.000000 8.703176
RightHand 7.424675 -0.000000 -3.483779
RightHandThumb1 -24.326973 -0.000000 -32.862282
LeftUpLeg -34.758543 -10.869068 2.554588
LeftLeg 25.936359 -0.000000 -0.000000
LeftFoot -4.411622 10.723867 -24.768192
LeftToeBase -19.552083 -0.000000 0.000000
RightUpLeg -12.224611 -4.929102 8.692701
RightLeg 13.061341 -0.000000 -0.000000
RightFoot -9.284907 -15.336631 5.303853
RightToeBase -12.875145 -0.000000 0.000000
1056
root 14.953975 32.729182 2.929952 15.973662 -63.033509 -364.928904
Spine -7.580671 9.233974 2.290129
Head 18.186232 -4.165369 -5.367638
LeftShoulder -24.948992 43.318035 14.851577
LeftArm 56.125044 -51.249444 -87.130563
LeftForeArm -0.546771 -0.000000 4.397593
LeftHand 6.494638 -0.000000 12.654840
LeftHandThumb1 -26.253704 0.000000 33.147579
RightShoulder -2.977918 5.419314 -28.107731
RightArm 21.435607 10.379934 59.073566
RightForeArm -8.777398 -0.000000 8.449932
RightHand 7.428125 -0.000000 -3.475568
RightHandThumb1 -24.326973 -0.000000 -32.862282
LeftUpLeg -34.624585 -10.320010 2.012192
LeftLeg 23.843113 -0.000000 -0.000000
LeftFoot -2.942763 11.343229 -25.107357
LeftToeBase -18.935234 -0.000000 0.000000
RightUpLeg -11.494906 -5.079362 8.917540
RightLeg 12.854454 -0.000000 -0.000000
RightFoot -9.379534 -15.366069 5.430505
RightToeBase -12.975927 -0.000000 0.000000
1057
root 14.683941 32.715043 2.966104 15.948123 -62.861714 -365.071433
Spine -7.550235 9.817768 2.287386
Head 18.146375 -4.147438 -5.403933
LeftShoulder -25.130068 43.342234 14.704137
LeftArm 55.914091 -51.388465 -86.857583
LeftForeArm -0.556473 -0.000000 4.288946
LeftHand 6.382386 -0.000000 12.694744
LeftHandThumb1 -26.253704 0.000000 33.147579
RightShoulder -2.865519 5.482350 -28.188082
RightArm 21.369463 10.239567 59.222687
RightForeArm -8.792461 -0.000000 8.399460
RightHand 7.412930 -0.000000 -3.460660
RightHandThumb1 -24.326973 -0.000000 -32.862282
LeftUpLeg -34.494465 -9.582997 1.306684
LeftLeg 22.064991 -0.000000 -0.000000
LeftFoot -1.694646 11.929264 -25.232704
LeftToeBase -18.308978 -0.000000 0.000000
RightUpLeg -10.844981 -5.280264 9.142717
RightLeg 12.782298 -0.000000 -0.000000
RightFoot -9.516174 -15.358015 5.539470
RightToeBase -13.267819 -0.000000 0.000000
1058
root 14.407909 32.696807 3.002867 15.946170 -62.665351 -365.257908
Spine -7.526395 10.307225 2.309515
Head 18.096362 -4.025960 -5.391700
LeftShoulder -25.396095 43.351929 14.517430
LeftArm 55.690293 -51.555486 -86.613906
LeftForeArm -0.562169 -0.000000 4.237099
LeftHand 6.481130 -0.000000 12.680895
LeftHandThumb1 -26.253704 0.000000 33.147579
RightShoulder -2.780757 5.318268 -28.228077
RightArm 21.584289 9.955211 59.312738
RightForeArm -8.681746 -0.000000 8.328789
RightHand 7.274288 -0.000000 -3.236746
RightHandThumb1 -24.326973 -0.000000 -32.862282
LeftUpLeg -34.345091 -8.618884 0.460976
LeftLeg 20.609203 -0.000000 -0.000000
LeftFoot -0.540127 12.547872 -24.996030
LeftToeBase -18.135894 -0.000000 0.000000
RightUpLeg -10.209892 -5.469990 9.393334
RightLeg 12.792317 -0.000000 -0.000000
RightFoot -9.634521 -15.404622 5.598835
RightToeBase -13.745603 -0.000000 0.000000
1059
root 14.127632 32.676582 3.041317 15.875128 -62.448731 -365.397752
Spine -7.509484 10.751135 2.288823
Head 18.094748 -3.876763 -5.302081
LeftShoulder -25.673423 43.449123 14.344600
LeftArm 55.436203 -51.614263 -86.229951
LeftForeArm -0.765714 -0.000000 4.088072
LeftHand 6.558951 -0.000000 12.766991
LeftHandThumb1 -26.253704 0.000000 33.147579
RightShoulder -2.632882 5.280017 -28.201213
RightArm 21.634166 9.801040 59.372459
RightForeArm -8.577607 0.000000 8.269954
RightHand 7.370386 -0.000000 -3.289666
RightHandThumb1 -24.326973 -0.000000 -32.862282
LeftUpLeg -34.169717 -7.545860 -0.474623
LeftLeg 19.486114 -0.000000 -0.000000
LeftFoot 0.484147 13.176723 -24.756932
LeftToeBase -18.006846 -0.000000 0.000000
RightUpLeg -9.592010 -5.673511 9.621122
RightLeg 12.907450 -0.000000 -0.000000
RightFoot -9.855393 -15.460786 5.840461
RightToeBase -14.171397 -0.000000 0.000000
